/* XPM */
static char *gold_ore[] = {
/* columns rows colors chars-per-pixel */
"16 16 10 1 ",
"  c gray36",
". c #686868",
"X c #747474",
"o c gray50",
"O c #9C7020",
"+ c #EB9D0E",
"@ c #FCEE4B",
"# c gray56",
"$ c #A2A2A2",
"% c #FFFFB5",
/* pixels */
"####oXXoX.XXoooo",
"ooXo  oooo  XXoX",
"oX. OO..X + .ooo",
"oo#@%+.o#$@O.XXX",
"Xo#+@$#Xo#$.#Xoo",
"o#o$O#oooX.O .X#",
"Xooo#oX. . %@ooo",
"XX..X.. +O$O+#oo",
"###  X.O$#o$$ooX",
"oo#@% ##ooooX.#o",
".oX$+X. .XXX.OXX",
"oOoo$#XO .o.O+o#",
"o$XXo#X%@ X.##.X",
"##oXXo#@+O.oXXo#",
"oXXoooo$$O.oo###",
"ooooooXXo##ooXoo"
};
