# Blender 4.0.2
# www.blender.org
mtllib TestCube.mtl
o Cube
v 1.000000 1.000000 -1.000000
v 1.000000 -1.000000 -1.000000
v 1.000000 1.000000 1.000000
v 1.000000 -1.000000 1.000000
v -1.000000 1.000000 -1.000000
v -1.000000 -1.000000 -1.000000
v -1.000000 1.000000 1.000000
v -1.000000 -1.000000 1.000000
vn -0.0000 1.0000 -0.0000
vn -0.0000 -0.0000 1.0000
vn -1.0000 -0.0000 -0.0000
vn -0.0000 -1.0000 -0.0000
vn 1.0000 -0.0000 -0.0000
vn -0.0000 -0.0000 -1.0000
vt 0.000000 0.000000
vt 1.000000 1.000000
vt 1.000000 0.000000
vt 0.000000 1.000000
s 0
usemtl Material
f 5/1/1 3/2/1 1/3/1
f 3/2/2 8/1/2 4/4/2
f 7/3/3 6/4/3 8/1/3
f 2/1/4 8/2/4 6/3/4
f 1/3/5 4/4/5 2/1/5
f 5/2/6 2/1/6 6/4/6
f 5/1/1 7/4/1 3/2/1
f 3/2/2 7/3/2 8/1/2
f 7/3/3 5/2/3 6/4/3
f 2/1/4 4/4/4 8/2/4
f 1/3/5 3/2/5 4/4/5
f 5/2/6 1/3/6 2/1/6
